<?xml version="1.0" standalone="no"?><!DOCTYPE svg PUBLIC "-//W3C//DTD SVG 1.1//EN" "http://www.w3.org/Graphics/SVG/1.1/DTD/svg11.dtd"><svg t="1649062060978" class="icon" viewBox="0 0 1024 1024" version="1.1" xmlns="http://www.w3.org/2000/svg" p-id="2740" xmlns:xlink="http://www.w3.org/1999/xlink" width="200" height="200"><defs><style type="text/css">@font-face { font-family: "feedback-iconfont"; src: url("//at.alicdn.com/t/font_1031158_u69w8yhxdu.woff2?t=1630033759944") format("woff2"), url("//at.alicdn.com/t/font_1031158_u69w8yhxdu.woff?t=1630033759944") format("woff"), url("//at.alicdn.com/t/font_1031158_u69w8yhxdu.ttf?t=1630033759944") format("truetype"); }
</style></defs><path d="M799.5904 940.8H230.816A141.3568 141.3568 0 0 1 89.6 799.5904v-568.768A141.3568 141.3568 0 0 1 230.816 89.6h568.7744A141.3568 141.3568 0 0 1 940.8 230.8224v353.344a32.0768 32.0768 0 1 1-64.1536 0v-353.344a77.1264 77.1264 0 0 0-77.0432-77.0432H230.816a77.1264 77.1264 0 0 0-77.0368 77.0432v568.7744a77.1328 77.1328 0 0 0 77.0368 77.0432h568.7744a77.1328 77.1328 0 0 0 77.0432-77.0432v-46.4768a32.0768 32.0768 0 1 1 64.1536 0v46.4768A141.3568 141.3568 0 0 1 799.5904 940.8z m-228.3008-256.64a32.0832 32.0832 0 0 1-32.0768-32.0832V416.768a34.7968 34.7968 0 0 1 63.2064-20.096l106.8096 150.4768v-138.88a32.0832 32.0832 0 0 1 64.16 0V639.232a34.7968 34.7968 0 0 1-63.168 20.1472l-106.88-150.5216v143.1808a32.0832 32.0832 0 0 1-32.0512 32.0832z m-21.2224-250.3936l0.0576 0.0768z" fill="#FB3F50" p-id="2741"></path><path d="M448 570.432a31.7952 31.7952 0 1 0 0-63.584H313.6V441.1456h134.4a31.7952 31.7952 0 1 0 0-63.584H294.1312A44.4352 44.4352 0 0 0 249.6 421.7984v225.2032a44.4352 44.4352 0 0 0 44.5312 44.2368H448a31.7952 31.7952 0 1 0 0-63.584H313.6V570.432h134.4z" fill="#FFCA1E" p-id="2742"></path></svg>